#extradata 0:       60, 0x43210bfe
#tb 0: 1/90000
#media_type 0: video
#codec_id 0: vvc
#dimensions 0: 320x180
#sar 0: 0/1
0,      -9000,          0,     3000,    30423, 0xcdf74ce4, S=1, MPEGTS Stream ID,        1, 0x00e000e0
0,      -6000,      24000,     3000,     1410, 0xb87b9a10, F=0x0, S=1, MPEGTS Stream ID,        1, 0x00e000e0
0,      -3000,      12000,     3000,      720, 0x79485233, F=0x0, S=1, MPEGTS Stream ID,        1, 0x00e000e0
0,          0,       6000,     3000,      180, 0x6c324122, F=0x0, S=1, MPEGTS Stream ID,        1, 0x00e000e0
0,       3000,       3000,     3000,       92, 0xfb4617b3, F=0x0, S=1, MPEGTS Stream ID,        1, 0x00e000e0
0,       6000,       9000,     3000,      190, 0x94c7406c, F=0x0, S=1, MPEGTS Stream ID,        1, 0x00e000e0
0,       9000,      18000,     3000,      593, 0xc6fb363d, F=0x0, S=1, MPEGTS Stream ID,        1, 0x00e000e0
0,      12000,      15000,     3000,      384, 0xaf6e9d12, F=0x0, S=1, MPEGTS Stream ID,        1, 0x00e000e0
0,      15000,      21000,     3000,      446, 0xc636babc, F=0x0, S=1, MPEGTS Stream ID,        1, 0x00e000e0
0,      18000,      48000,     3000,     2947, 0xa89e8e7c, F=0x0, S=1, MPEGTS Stream ID,        1, 0x00e000e0
0,      21000,      36000,     3000,      481, 0x8573ceeb, F=0x0, S=1, MPEGTS Stream ID,        1, 0x00e000e0
0,      24000,      30000,     3000,      529, 0xd4f404e8, F=0x0, S=1, MPEGTS Stream ID,        1, 0x00e000e0
0,      27000,      27000,     3000,      434, 0x30b8b4f5, F=0x0, S=1, MPEGTS Stream ID,        1, 0x00e000e0
0,      30000,      33000,     3000,      443, 0xceb2dc12, F=0x0, S=1, MPEGTS Stream ID,        1, 0x00e000e0
0,      33000,      42000,     3000,      435, 0x2e06d07b, F=0x0, S=1, MPEGTS Stream ID,        1, 0x00e000e0
0,      36000,      39000,     3000,      361, 0xc56d905c, F=0x0, S=1, MPEGTS Stream ID,        1, 0x00e000e0
0,      39000,      45000,     3000,      293, 0xe5ae74c9, F=0x0, S=1, MPEGTS Stream ID,        1, 0x00e000e0
0,      42000,      72000,     3000,     3064, 0xb56fe651, F=0x0, S=1, MPEGTS Stream ID,        1, 0x00e000e0
0,      45000,      60000,     3000,      322, 0x5f227cfa, F=0x0, S=1, MPEGTS Stream ID,        1, 0x00e000e0
0,      48000,      54000,     3000,      385, 0x0470a5b3, F=0x0, S=1, MPEGTS Stream ID,        1, 0x00e000e0
0,      51000,      51000,     3000,      264, 0x9cee6f9d, F=0x0, S=1, MPEGTS Stream ID,        1, 0x00e000e0
0,      54000,      57000,     3000,      275, 0x70097dfb, F=0x0, S=1, MPEGTS Stream ID,        1, 0x00e000e0
0,      57000,      66000,     3000,      202, 0x0f474e32, F=0x0, S=1, MPEGTS Stream ID,        1, 0x00e000e0
0,      60000,      63000,     3000,      312, 0xd9c779a7, F=0x0, S=1, MPEGTS Stream ID,        1, 0x00e000e0
0,      63000,      69000,     3000,      232, 0xb569523c, F=0x0, S=1, MPEGTS Stream ID,        1, 0x00e000e0
0,      66000,      87000,     3000,     3216, 0xf0a20342, F=0x0, S=1, MPEGTS Stream ID,        1, 0x00e000e0
0,      69000,      78000,     3000,      256, 0xf49a6751, F=0x0, S=1, MPEGTS Stream ID,        1, 0x00e000e0
0,      72000,      75000,     3000,      210, 0xb52d4db9, F=0x0, S=1, MPEGTS Stream ID,        1, 0x00e000e0
0,      75000,      81000,     3000,      175, 0x1f243c47, F=0x0, S=1, MPEGTS Stream ID,        1, 0x00e000e0
0,      78000,      84000,     3000,      219, 0xeef356e5, F=0x0, S=1, MPEGTS Stream ID,        1, 0x00e000e0
[FRAME]
[SIDE_DATA]
side_data_type=LCEVC NAL data
[/SIDE_DATA]
[/FRAME]
[FRAME]
[SIDE_DATA]
side_data_type=LCEVC NAL data
[/SIDE_DATA]
[/FRAME]
[FRAME]
[SIDE_DATA]
side_data_type=LCEVC NAL data
[/SIDE_DATA]
[/FRAME]
[FRAME]
[SIDE_DATA]
side_data_type=LCEVC NAL data
[/SIDE_DATA]
[/FRAME]
[FRAME]
[SIDE_DATA]
side_data_type=LCEVC NAL data
[/SIDE_DATA]
[/FRAME]
[FRAME]
[SIDE_DATA]
side_data_type=LCEVC NAL data
[/SIDE_DATA]
[/FRAME]
[FRAME]
[SIDE_DATA]
side_data_type=LCEVC NAL data
[/SIDE_DATA]
[/FRAME]
[FRAME]
[SIDE_DATA]
side_data_type=LCEVC NAL data
[/SIDE_DATA]
[/FRAME]
[FRAME]
[SIDE_DATA]
side_data_type=LCEVC NAL data
[/SIDE_DATA]
[/FRAME]
[FRAME]
[SIDE_DATA]
side_data_type=LCEVC NAL data
[/SIDE_DATA]
[/FRAME]
[FRAME]
[SIDE_DATA]
side_data_type=LCEVC NAL data
[/SIDE_DATA]
[/FRAME]
[FRAME]
[SIDE_DATA]
side_data_type=LCEVC NAL data
[/SIDE_DATA]
[/FRAME]
[FRAME]
[SIDE_DATA]
side_data_type=LCEVC NAL data
[/SIDE_DATA]
[/FRAME]
[FRAME]
[SIDE_DATA]
side_data_type=LCEVC NAL data
[/SIDE_DATA]
[/FRAME]
[FRAME]
[SIDE_DATA]
side_data_type=LCEVC NAL data
[/SIDE_DATA]
[/FRAME]
[FRAME]
[SIDE_DATA]
side_data_type=LCEVC NAL data
[/SIDE_DATA]
[/FRAME]
[FRAME]
[SIDE_DATA]
side_data_type=LCEVC NAL data
[/SIDE_DATA]
[/FRAME]
[FRAME]
[SIDE_DATA]
side_data_type=LCEVC NAL data
[/SIDE_DATA]
[/FRAME]
[FRAME]
[SIDE_DATA]
side_data_type=LCEVC NAL data
[/SIDE_DATA]
[/FRAME]
[FRAME]
[SIDE_DATA]
side_data_type=LCEVC NAL data
[/SIDE_DATA]
[/FRAME]
[FRAME]
[SIDE_DATA]
side_data_type=LCEVC NAL data
[/SIDE_DATA]
[/FRAME]
[FRAME]
[SIDE_DATA]
side_data_type=LCEVC NAL data
[/SIDE_DATA]
[/FRAME]
[FRAME]
[SIDE_DATA]
side_data_type=LCEVC NAL data
[/SIDE_DATA]
[/FRAME]
[FRAME]
[SIDE_DATA]
side_data_type=LCEVC NAL data
[/SIDE_DATA]
[/FRAME]
[FRAME]
[SIDE_DATA]
side_data_type=LCEVC NAL data
[/SIDE_DATA]
[/FRAME]
[FRAME]
[SIDE_DATA]
side_data_type=LCEVC NAL data
[/SIDE_DATA]
[/FRAME]
[FRAME]
[SIDE_DATA]
side_data_type=LCEVC NAL data
[/SIDE_DATA]
[/FRAME]
[FRAME]
[SIDE_DATA]
side_data_type=LCEVC NAL data
[/SIDE_DATA]
[/FRAME]
[FRAME]
[SIDE_DATA]
side_data_type=LCEVC NAL data
[/SIDE_DATA]
[/FRAME]
[FRAME]
[SIDE_DATA]
side_data_type=LCEVC NAL data
[/SIDE_DATA]
[/FRAME]
